<svg xmlns="http://www.w3.org/2000/svg" viewBox="0 0 680 620"><defs><radialGradient id="orb"><stop stop-color="#123E40" stop-opacity=".12"/><stop offset=".9" stop-color="#5A9084" stop-opacity=".06"/><stop offset=".99" stop-color="#ADC1AB" stop-opacity=".4"/><stop offset="1" stop-color="#B7CDB5" stop-opacity=".12"/></radialGradient><filter id="mist"><feGaussianBlur stdDeviation="8"/></filter><filter id="halo"><feGaussianBlur stdDeviation="2"/></filter></defs><circle cx="230" cy="235" r="108" fill="url(#orb)"/><clipPath id="clip0"><circle cx="230" cy="235" r="104.75999999999999"/></clipPath><g clip-path="url(#clip0)"><path d="M154.4 213.4q59.400000000000006 -37.8 91.8 21.6t86.4 -27.0" fill="none" stroke="#85B3A5" stroke-width="17.28" opacity=".15" filter="url(#mist)"/><path d="M154.4 235.0q59.400000000000006 -37.8 91.8 21.6t86.4 -27.0" fill="none" stroke="#85B3A5" stroke-width="17.28" opacity=".15" filter="url(#mist)"/><path d="M154.4 256.6q59.400000000000006 -37.8 91.8 21.6t86.4 -27.0" fill="none" stroke="#85B3A5" stroke-width="17.28" opacity=".15" filter="url(#mist)"/><circle cx="272.4" cy="235.0" r="1.2" fill="#EDE5D3" opacity="0.65"/><circle cx="160.3" cy="298.8" r="0.5" fill="#EDE5D3" opacity="0.25"/><circle cx="237.1" cy="154.0" r="0.5" fill="#EDE5D3" opacity="0.25"/><circle cx="269.9" cy="287.0" r="0.5" fill="#EDE5D3" opacity="0.25"/><circle cx="186.2" cy="227.3" r="0.5" fill="#EDE5D3" opacity="0.25"/><circle cx="310.5" cy="183.8" r="0.5" fill="#EDE5D3" opacity="0.25"/><circle cx="208.6" cy="314.6" r="0.5" fill="#EDE5D3" opacity="0.25"/><circle cx="199.2" cy="175.6" r="0.5" fill="#EDE5D3" opacity="0.25"/><circle cx="273.7" cy="251.0" r="0.5" fill="#EDE5D3" opacity="0.25"/><circle cx="140.9" cy="271.8" r="0.5" fill="#EDE5D3" opacity="0.25"/><circle cx="265.4" cy="159.3" r="0.5" fill="#EDE5D3" opacity="0.25"/><circle cx="250.4" cy="300.2" r="0.5" fill="#EDE5D3" opacity="0.25"/><circle cx="188.1" cy="210.7" r="0.5" fill="#EDE5D3" opacity="0.25"/><circle cx="235.5" cy="233.8" r="0.5" fill="#EDE5D3" opacity="0.25"/><circle cx="181.3" cy="304.2" r="0.5" fill="#EDE5D3" opacity="0.25"/><circle cx="221.1" cy="165.9" r="0.5" fill="#EDE5D3" opacity="0.25"/><circle cx="268.5" cy="267.4" r="0.5" fill="#EDE5D3" opacity="0.25"/><circle cx="215.3" cy="235.6" r="0.5" fill="#EDE5D3" opacity="0.25"/><circle cx="290.8" cy="174.5" r="0.5" fill="#EDE5D3" opacity="0.25"/><circle cx="226.7" cy="305.9" r="1.2" fill="#EDE5D3" opacity="0.65"/><circle cx="196.6" cy="195.0" r="0.5" fill="#EDE5D3" opacity="0.25"/><circle cx="249.8" cy="237.7" r="0.5" fill="#EDE5D3" opacity="0.25"/><circle cx="158.8" cy="284.6" r="0.5" fill="#EDE5D3" opacity="0.25"/><circle cx="245.9" cy="164.5" r="0.5" fill="#EDE5D3" opacity="0.25"/><circle cx="256.8" cy="281.7" r="0.5" fill="#EDE5D3" opacity="0.25"/><circle cx="207.0" cy="227.6" r="0.5" fill="#EDE5D3" opacity="0.25"/><circle cx="309.7" cy="198.2" r="0.5" fill="#EDE5D3" opacity="0.25"/><circle cx="201.6" cy="302.8" r="0.5" fill="#EDE5D3" opacity="0.25"/><circle cx="211.2" cy="182.7" r="0.5" fill="#EDE5D3" opacity="0.25"/><circle cx="254.6" cy="247.9" r="0.5" fill="#EDE5D3" opacity="0.25"/><circle cx="144.0" cy="257.7" r="0.5" fill="#EDE5D3" opacity="0.25"/><circle cx="270.4" cy="172.1" r="0.5" fill="#EDE5D3" opacity="0.25"/><circle cx="239.7" cy="291.4" r="0.5" fill="#EDE5D3" opacity="0.25"/><circle cx="205.6" cy="216.1" r="0.5" fill="#EDE5D3" opacity="0.25"/><circle cx="319.6" cy="227.6" r="0.5" fill="#EDE5D3" opacity="0.25"/><circle cx="178.4" cy="290.8" r="0.5" fill="#EDE5D3" opacity="0.25"/><circle cx="230.3" cy="176.2" r="0.5" fill="#EDE5D3" opacity="0.25"/><circle cx="252.7" cy="260.0" r="0.5" fill="#EDE5D3" opacity="0.25"/><circle cx="139.4" cy="226.6" r="1.2" fill="#EDE5D3" opacity="0.65"/><circle cx="291.5" cy="188.4" r="0.5" fill="#EDE5D3" opacity="0.25"/><circle cx="219.2" cy="294.3" r="0.5" fill="#EDE5D3" opacity="0.25"/><circle cx="210.6" cy="204.2" r="0.5" fill="#EDE5D3" opacity="0.25"/><circle cx="318.7" cy="259.3" r="0.5" fill="#EDE5D3" opacity="0.25"/><circle cx="160.3" cy="270.8" r="0.5" fill="#EDE5D3" opacity="0.25"/><circle cx="251.5" cy="177.0" r="0.5" fill="#EDE5D3" opacity="0.25"/><circle cx="244.6" cy="271.0" r="0.5" fill="#EDE5D3" opacity="0.25"/><circle cx="146.0" cy="195.2" r="0.5" fill="#EDE5D3" opacity="0.25"/><circle cx="306.0" cy="211.6" r="0.5" fill="#EDE5D3" opacity="0.25"/><circle cx="198.0" cy="289.6" r="0.5" fill="#EDE5D3" opacity="0.25"/><circle cx="221.4" cy="194.8" r="0.5" fill="#EDE5D3" opacity="0.25"/><circle cx="306.6" cy="289.4" r="0.5" fill="#EDE5D3" opacity="0.25"/><circle cx="150.0" cy="245.0" r="0.5" fill="#EDE5D3" opacity="0.25"/><circle cx="272.0" cy="185.7" r="0.5" fill="#EDE5D3" opacity="0.25"/><circle cx="231.6" cy="278.3" r="0.5" fill="#EDE5D3" opacity="0.25"/><circle cx="163.4" cy="167.4" r="0.5" fill="#EDE5D3" opacity="0.25"/><circle cx="311.7" cy="239.2" r="0.5" fill="#EDE5D3" opacity="0.25"/><circle cx="179.0" cy="277.1" r="0.5" fill="#EDE5D3" opacity="0.25"/><circle cx="236.3" cy="190.1" r="1.2" fill="#EDE5D3" opacity="0.65"/><circle cx="284.4" cy="314.0" r="0.5" fill="#EDE5D3" opacity="0.25"/><circle cx="149.2" cy="216.4" r="0.5" fill="#EDE5D3" opacity="0.25"/><circle cx="288.8" cy="201.7" r="0.5" fill="#EDE5D3" opacity="0.25"/><circle cx="215.4" cy="280.1" r="0.5" fill="#EDE5D3" opacity="0.25"/><circle cx="189.8" cy="146.9" r="0.5" fill="#EDE5D3" opacity="0.25"/><circle cx="307.4" cy="267.8" r="0.5" fill="#EDE5D3" opacity="0.25"/><circle cx="165.1" cy="258.0" r="0.5" fill="#EDE5D3" opacity="0.25"/><circle cx="253.1" cy="191.5" r="0.5" fill="#EDE5D3" opacity="0.25"/><circle cx="232.7" cy="245.3" r="0.5" fill="#EDE5D3" opacity="0.25"/><circle cx="158.6" cy="188.6" r="0.5" fill="#EDE5D3" opacity="0.25"/><circle cx="299.2" cy="223.4" r="0.5" fill="#EDE5D3" opacity="0.25"/><circle cx="198.5" cy="275.3" r="0.5" fill="#EDE5D3" opacity="0.25"/><circle cx="228.7" cy="217.8" r="0.5" fill="#EDE5D3" opacity="0.25"/><circle cx="293.0" cy="293.8" r="0.5" fill="#EDE5D3" opacity="0.25"/><circle cx="158.5" cy="234.3" r="0.5" fill="#EDE5D3" opacity="0.25"/><circle cx="269.3" cy="199.7" r="0.5" fill="#EDE5D3" opacity="0.25"/><circle cx="227.9" cy="256.8" r="0.5" fill="#EDE5D3" opacity="0.25"/><circle cx="177.6" cy="165.2" r="0.5" fill="#EDE5D3" opacity="0.25"/><circle cx="301.5" cy="248.4" r="1.2" fill="#EDE5D3" opacity="0.65"/><circle cx="183.6" cy="263.9" r="0.5" fill="#EDE5D3" opacity="0.25"/><circle cx="236.9" cy="210.2" r="0.5" fill="#EDE5D3" opacity="0.25"/><circle cx="269.9" cy="313.8" r="0.5" fill="#EDE5D3" opacity="0.25"/><circle cx="160.7" cy="208.9" r="0.5" fill="#EDE5D3" opacity="0.25"/><circle cx="282.2" cy="214.0" r="0.5" fill="#EDE5D3" opacity="0.25"/><circle cx="217.4" cy="261.3" r="0.5" fill="#EDE5D3" opacity="0.25"/><circle cx="204.1" cy="149.5" r="0.5" fill="#EDE5D3" opacity="0.25"/><circle cx="294.8" cy="273.4" r="0.5" fill="#EDE5D3" opacity="0.25"/><circle cx="173.4" cy="246.9" r="0.5" fill="#EDE5D3" opacity="0.25"/><circle cx="248.7" cy="208.9" r="0.5" fill="#EDE5D3" opacity="0.25"/><circle cx="240.7" cy="324.7" r="0.5" fill="#EDE5D3" opacity="0.25"/><circle cx="172.0" cy="185.1" r="0.5" fill="#EDE5D3" opacity="0.25"/><circle cx="289.4" cy="233.1" r="0.5" fill="#EDE5D3" opacity="0.25"/><circle cx="205.0" cy="259.4" r="0.5" fill="#EDE5D3" opacity="0.25"/><circle cx="235.1" cy="143.8" r="0.5" fill="#EDE5D3" opacity="0.25"/><circle cx="279.2" cy="295.1" r="0.5" fill="#EDE5D3" opacity="0.25"/><circle cx="169.6" cy="226.3" r="0.5" fill="#EDE5D3" opacity="0.25"/><circle cx="260.9" cy="213.9" r="0.5" fill="#EDE5D3" opacity="0.25"/><circle cx="208.8" cy="324.9" r="1.2" fill="#EDE5D3" opacity="0.65"/><circle cx="191.5" cy="166.2" r="0.5" fill="#EDE5D3" opacity="0.25"/><circle cx="289.3" cy="254.6" r="0.5" fill="#EDE5D3" opacity="0.25"/><circle cx="193.7" cy="251.4" r="0.5" fill="#EDE5D3" opacity="0.25"/><circle cx="266.9" cy="149.2" r="0.5" fill="#EDE5D3" opacity="0.25"/><circle cx="256.3" cy="310.6" r="0.5" fill="#EDE5D3" opacity="0.25"/><circle cx="173.7" cy="204.7" r="0.5" fill="#EDE5D3" opacity="0.25"/><circle cx="270.8" cy="224.7" r="0.5" fill="#EDE5D3" opacity="0.25"/><circle cx="178.2" cy="313.9" r="0.5" fill="#EDE5D3" opacity="0.25"/><circle cx="217.0" cy="154.9" r="0.5" fill="#EDE5D3" opacity="0.25"/><circle cx="281.3" cy="275.5" r="0.5" fill="#EDE5D3" opacity="0.25"/><circle cx="185.9" cy="238.2" r="0.5" fill="#EDE5D3" opacity="0.25"/><circle cx="295.4" cy="165.7" r="0.5" fill="#EDE5D3" opacity="0.25"/><circle cx="228.8" cy="317.3" r="0.5" fill="#EDE5D3" opacity="0.25"/><circle cx="185.6" cy="185.1" r="0.5" fill="#EDE5D3" opacity="0.25"/><circle cx="276.0" cy="239.7" r="0.5" fill="#EDE5D3" opacity="0.25"/><circle cx="152.7" cy="292.5" r="0.5" fill="#EDE5D3" opacity="0.25"/><circle cx="245.7" cy="153.1" r="0.5" fill="#EDE5D3" opacity="0.25"/><circle cx="265.7" cy="293.0" r="0.5" fill="#EDE5D3" opacity="0.25"/><circle cx="183.6" cy="221.8" r="1.2" fill="#EDE5D3" opacity="0.65"/><circle cx="232.5" cy="233.7" r="0.5" fill="#EDE5D3" opacity="0.25"/><circle cx="199.9" cy="313.9" r="0.5" fill="#EDE5D3" opacity="0.25"/><circle cx="204.4" cy="170.4" r="0.5" fill="#EDE5D3" opacity="0.25"/><circle cx="275.0" cy="256.9" r="0.5" fill="#EDE5D3" opacity="0.25"/><circle cx="216.7" cy="239.0" r="0.5" fill="#EDE5D3" opacity="0.25"/><circle cx="274.0" cy="161.6" r="0.5" fill="#EDE5D3" opacity="0.25"/><circle cx="244.2" cy="304.3" r="0.5" fill="#EDE5D3" opacity="0.25"/><circle cx="188.0" cy="204.5" r="0.5" fill="#EDE5D3" opacity="0.25"/><circle cx="249.3" cy="232.8" r="0.5" fill="#EDE5D3" opacity="0.25"/><circle cx="173.2" cy="300.4" r="0.5" fill="#EDE5D3" opacity="0.25"/><circle cx="228.1" cy="163.0" r="0.5" fill="#EDE5D3" opacity="0.25"/><circle cx="267.3" cy="273.6" r="0.5" fill="#EDE5D3" opacity="0.25"/><circle cx="206.4" cy="233.6" r="0.5" fill="#EDE5D3" opacity="0.25"/><circle cx="298.2" cy="179.8" r="0.5" fill="#EDE5D3" opacity="0.25"/><circle cx="219.2" cy="307.5" r="0.5" fill="#EDE5D3" opacity="0.25"/><circle cx="199.1" cy="189.1" r="0.5" fill="#EDE5D3" opacity="0.25"/><circle cx="256.5" cy="241.4" r="0.5" fill="#EDE5D3" opacity="0.25"/><circle cx="152.4" cy="278.0" r="0.5" fill="#EDE5D3" opacity="0.25"/><circle cx="253.7" cy="164.3" r="1.2" fill="#EDE5D3" opacity="0.65"/><circle cx="253.1" cy="287.1" r="0.5" fill="#EDE5D3" opacity="0.25"/><circle cx="202.0" cy="222.8" r="0.5" fill="#EDE5D3" opacity="0.25"/><circle cx="314.9" cy="205.8" r="0.5" fill="#EDE5D3" opacity="0.25"/><circle cx="193.8" cy="301.6" r="0.5" fill="#EDE5D3" opacity="0.25"/><circle cx="215.9" cy="178.2" r="0.5" fill="#EDE5D3" opacity="0.25"/><circle cx="257.8" cy="253.5" r="0.5" fill="#EDE5D3" opacity="0.25"/><circle cx="140.3" cy="249.1" r="0.5" fill="#EDE5D3" opacity="0.25"/><circle cx="278.0" cy="174.8" r="0.5" fill="#EDE5D3" opacity="0.25"/><circle cx="234.1" cy="295.0" r="0.5" fill="#EDE5D3" opacity="0.25"/><circle cx="203.9" cy="210.1" r="0.5" fill="#EDE5D3" opacity="0.25"/><circle cx="321.8" cy="236.8" r="0.5" fill="#EDE5D3" opacity="0.25"/><circle cx="171.3" cy="286.7" r="0.5" fill="#EDE5D3" opacity="0.25"/><circle cx="236.6" cy="173.7" r="0.5" fill="#EDE5D3" opacity="0.25"/><circle cx="252.8" cy="266.0" r="0.5" fill="#EDE5D3" opacity="0.25"/><circle cx="138.9" cy="217.1" r="0.5" fill="#EDE5D3" opacity="0.25"/><circle cx="297.8" cy="193.7" r="0.5" fill="#EDE5D3" opacity="0.25"/><circle cx="212.4" cy="295.6" r="0.5" fill="#EDE5D3" opacity="0.25"/><circle cx="211.9" cy="198.4" r="0.5" fill="#EDE5D3" opacity="0.25"/><circle cx="317.5" cy="268.9" r="1.2" fill="#EDE5D3" opacity="0.65"/><circle cx="155.0" cy="264.3" r="0.5" fill="#EDE5D3" opacity="0.25"/><circle cx="258.5" cy="177.1" r="0.5" fill="#EDE5D3" opacity="0.25"/><circle cx="242.1" cy="276.3" r="0.5" fill="#EDE5D3" opacity="0.25"/><circle cx="148.9" cy="185.9" r="0.5" fill="#EDE5D3" opacity="0.25"/><circle cx="310.1" cy="219.0" r="0.5" fill="#EDE5D3" opacity="0.25"/><circle cx="191.0" cy="288.2" r="0.5" fill="#EDE5D3" opacity="0.25"/><circle cx="225.1" cy="190.2" r="0.5" fill="#EDE5D3" opacity="0.25"/><polyline points="166.3,219.9 183.6,190.7 217.0,200.4 235.4,177.8 264.6,202.6 286.2,194.0" stroke="#EDE5D3" opacity=".6" stroke-width=".8" fill="none"/><circle cx="166.28" cy="219.88" r="3" fill="#EDE5D3" opacity=".6" filter="url(#halo)"/><circle cx="166.28" cy="219.88" r="1" fill="#F6F4EF"/><circle cx="183.56" cy="190.72" r="3" fill="#EDE5D3" opacity=".6" filter="url(#halo)"/><circle cx="183.56" cy="190.72" r="1" fill="#F6F4EF"/><circle cx="217.04" cy="200.44" r="3" fill="#EDE5D3" opacity=".6" filter="url(#halo)"/><circle cx="217.04" cy="200.44" r="1" fill="#F6F4EF"/><circle cx="235.4" cy="177.76" r="3" fill="#EDE5D3" opacity=".6" filter="url(#halo)"/><circle cx="235.4" cy="177.76" r="1" fill="#F6F4EF"/><circle cx="264.56" cy="202.6" r="3" fill="#EDE5D3" opacity=".6" filter="url(#halo)"/><circle cx="264.56" cy="202.6" r="1" fill="#F6F4EF"/><circle cx="286.16" cy="193.96" r="3" fill="#EDE5D3" opacity=".6" filter="url(#halo)"/><circle cx="286.16" cy="193.96" r="1" fill="#F6F4EF"/><polyline points="194.4,286.8 214.9,257.7 249.4,268.5 271.0,248.0 287.2,272.8" stroke="#EDE5D3" opacity=".6" stroke-width=".8" fill="none"/><circle cx="194.36" cy="286.84" r="3" fill="#EDE5D3" opacity=".6" filter="url(#halo)"/><circle cx="194.36" cy="286.84" r="1" fill="#F6F4EF"/><circle cx="214.88" cy="257.68" r="3" fill="#EDE5D3" opacity=".6" filter="url(#halo)"/><circle cx="214.88" cy="257.68" r="1" fill="#F6F4EF"/><circle cx="249.44" cy="268.48" r="3" fill="#EDE5D3" opacity=".6" filter="url(#halo)"/><circle cx="249.44" cy="268.48" r="1" fill="#F6F4EF"/><circle cx="271.04" cy="247.96" r="3" fill="#EDE5D3" opacity=".6" filter="url(#halo)"/><circle cx="271.04" cy="247.96" r="1" fill="#F6F4EF"/><circle cx="287.24" cy="272.8" r="3" fill="#EDE5D3" opacity=".6" filter="url(#halo)"/><circle cx="287.24" cy="272.8" r="1" fill="#F6F4EF"/></g><circle cx="491" cy="284" r="82" fill="url(#orb)"/><clipPath id="clip1"><circle cx="491" cy="284" r="79.53999999999999"/></clipPath><g clip-path="url(#clip1)"><path d="M433.6 267.6q45.1 -28.7 69.7 16.400000000000002t65.60000000000001 -20.5" fill="none" stroke="#85B3A5" stroke-width="13.120000000000001" opacity=".15" filter="url(#mist)"/><path d="M433.6 284.0q45.1 -28.7 69.7 16.400000000000002t65.60000000000001 -20.5" fill="none" stroke="#85B3A5" stroke-width="13.120000000000001" opacity=".15" filter="url(#mist)"/><path d="M433.6 300.4q45.1 -28.7 69.7 16.400000000000002t65.60000000000001 -20.5" fill="none" stroke="#85B3A5" stroke-width="13.120000000000001" opacity=".15" filter="url(#mist)"/><circle cx="523.2" cy="284.0" r="1.2" fill="#EDE5D3" opacity="0.65"/><circle cx="438.1" cy="332.5" r="0.5" fill="#EDE5D3" opacity="0.25"/><circle cx="496.4" cy="222.5" r="0.5" fill="#EDE5D3" opacity="0.25"/><circle cx="521.3" cy="323.5" r="0.5" fill="#EDE5D3" opacity="0.25"/><circle cx="457.7" cy="278.1" r="0.5" fill="#EDE5D3" opacity="0.25"/><circle cx="552.2" cy="245.1" r="0.5" fill="#EDE5D3" opacity="0.25"/><circle cx="474.8" cy="344.4" r="0.5" fill="#EDE5D3" opacity="0.25"/><circle cx="467.6" cy="238.9" r="0.5" fill="#EDE5D3" opacity="0.25"/><circle cx="524.2" cy="296.1" r="0.5" fill="#EDE5D3" opacity="0.25"/><circle cx="423.3" cy="311.9" r="0.5" fill="#EDE5D3" opacity="0.25"/><circle cx="517.9" cy="226.5" r="0.5" fill="#EDE5D3" opacity="0.25"/><circle cx="506.5" cy="333.5" r="0.5" fill="#EDE5D3" opacity="0.25"/><circle cx="459.2" cy="265.6" r="0.5" fill="#EDE5D3" opacity="0.25"/><circle cx="495.2" cy="283.1" r="0.5" fill="#EDE5D3" opacity="0.25"/><circle cx="454.0" cy="336.6" r="0.5" fill="#EDE5D3" opacity="0.25"/><circle cx="484.2" cy="231.6" r="0.5" fill="#EDE5D3" opacity="0.25"/><circle cx="520.2" cy="308.6" r="0.5" fill="#EDE5D3" opacity="0.25"/><circle cx="479.8" cy="284.5" r="0.5" fill="#EDE5D3" opacity="0.25"/><circle cx="537.1" cy="238.1" r="0.5" fill="#EDE5D3" opacity="0.25"/><circle cx="488.5" cy="337.8" r="1.2" fill="#EDE5D3" opacity="0.65"/><circle cx="465.6" cy="253.6" r="0.5" fill="#EDE5D3" opacity="0.25"/><circle cx="506.1" cy="286.0" r="0.5" fill="#EDE5D3" opacity="0.25"/><circle cx="436.9" cy="321.6" r="0.5" fill="#EDE5D3" opacity="0.25"/><circle cx="503.0" cy="230.5" r="0.5" fill="#EDE5D3" opacity="0.25"/><circle cx="511.3" cy="319.5" r="0.5" fill="#EDE5D3" opacity="0.25"/><circle cx="473.5" cy="278.4" r="0.5" fill="#EDE5D3" opacity="0.25"/><circle cx="551.5" cy="256.0" r="0.5" fill="#EDE5D3" opacity="0.25"/><circle cx="469.5" cy="335.5" r="0.5" fill="#EDE5D3" opacity="0.25"/><circle cx="476.7" cy="244.3" r="0.5" fill="#EDE5D3" opacity="0.25"/><circle cx="509.6" cy="293.8" r="0.5" fill="#EDE5D3" opacity="0.25"/><circle cx="425.7" cy="301.2" r="0.5" fill="#EDE5D3" opacity="0.25"/><circle cx="521.7" cy="236.3" r="0.5" fill="#EDE5D3" opacity="0.25"/><circle cx="498.4" cy="326.8" r="0.5" fill="#EDE5D3" opacity="0.25"/><circle cx="472.5" cy="269.6" r="0.5" fill="#EDE5D3" opacity="0.25"/><circle cx="559.0" cy="278.4" r="0.5" fill="#EDE5D3" opacity="0.25"/><circle cx="451.8" cy="326.3" r="0.5" fill="#EDE5D3" opacity="0.25"/><circle cx="491.2" cy="239.4" r="0.5" fill="#EDE5D3" opacity="0.25"/><circle cx="508.2" cy="303.0" r="0.5" fill="#EDE5D3" opacity="0.25"/><circle cx="422.2" cy="277.6" r="1.2" fill="#EDE5D3" opacity="0.65"/><circle cx="537.7" cy="248.6" r="0.5" fill="#EDE5D3" opacity="0.25"/><circle cx="482.8" cy="329.1" r="0.5" fill="#EDE5D3" opacity="0.25"/><circle cx="476.3" cy="260.6" r="0.5" fill="#EDE5D3" opacity="0.25"/><circle cx="558.3" cy="302.5" r="0.5" fill="#EDE5D3" opacity="0.25"/><circle cx="438.1" cy="311.2" r="0.5" fill="#EDE5D3" opacity="0.25"/><circle cx="507.3" cy="240.0" r="0.5" fill="#EDE5D3" opacity="0.25"/><circle cx="502.1" cy="311.3" r="0.5" fill="#EDE5D3" opacity="0.25"/><circle cx="427.2" cy="253.8" r="0.5" fill="#EDE5D3" opacity="0.25"/><circle cx="548.7" cy="266.2" r="0.5" fill="#EDE5D3" opacity="0.25"/><circle cx="466.7" cy="325.5" r="0.5" fill="#EDE5D3" opacity="0.25"/><circle cx="484.4" cy="253.5" r="0.5" fill="#EDE5D3" opacity="0.25"/><circle cx="549.1" cy="325.3" r="0.5" fill="#EDE5D3" opacity="0.25"/><circle cx="430.2" cy="291.6" r="0.5" fill="#EDE5D3" opacity="0.25"/><circle cx="522.9" cy="246.6" r="0.5" fill="#EDE5D3" opacity="0.25"/><circle cx="492.2" cy="316.9" r="0.5" fill="#EDE5D3" opacity="0.25"/><circle cx="440.4" cy="232.7" r="0.5" fill="#EDE5D3" opacity="0.25"/><circle cx="553.0" cy="287.2" r="0.5" fill="#EDE5D3" opacity="0.25"/><circle cx="452.3" cy="316.0" r="0.5" fill="#EDE5D3" opacity="0.25"/><circle cx="495.8" cy="249.9" r="1.2" fill="#EDE5D3" opacity="0.65"/><circle cx="532.3" cy="344.0" r="0.5" fill="#EDE5D3" opacity="0.25"/><circle cx="429.6" cy="269.9" r="0.5" fill="#EDE5D3" opacity="0.25"/><circle cx="535.6" cy="258.7" r="0.5" fill="#EDE5D3" opacity="0.25"/><circle cx="479.9" cy="318.2" r="0.5" fill="#EDE5D3" opacity="0.25"/><circle cx="460.5" cy="217.1" r="0.5" fill="#EDE5D3" opacity="0.25"/><circle cx="549.7" cy="308.9" r="0.5" fill="#EDE5D3" opacity="0.25"/><circle cx="441.7" cy="301.5" r="0.5" fill="#EDE5D3" opacity="0.25"/><circle cx="508.6" cy="251.0" r="0.5" fill="#EDE5D3" opacity="0.25"/><circle cx="493.0" cy="291.8" r="0.5" fill="#EDE5D3" opacity="0.25"/><circle cx="436.8" cy="248.8" r="0.5" fill="#EDE5D3" opacity="0.25"/><circle cx="543.6" cy="275.2" r="0.5" fill="#EDE5D3" opacity="0.25"/><circle cx="467.1" cy="314.6" r="0.5" fill="#EDE5D3" opacity="0.25"/><circle cx="490.0" cy="271.0" r="0.5" fill="#EDE5D3" opacity="0.25"/><circle cx="538.8" cy="328.7" r="0.5" fill="#EDE5D3" opacity="0.25"/><circle cx="436.7" cy="283.5" r="0.5" fill="#EDE5D3" opacity="0.25"/><circle cx="520.9" cy="257.2" r="0.5" fill="#EDE5D3" opacity="0.25"/><circle cx="489.4" cy="300.6" r="0.5" fill="#EDE5D3" opacity="0.25"/><circle cx="451.2" cy="231.0" r="0.5" fill="#EDE5D3" opacity="0.25"/><circle cx="545.3" cy="294.2" r="1.2" fill="#EDE5D3" opacity="0.65"/><circle cx="455.8" cy="305.9" r="0.5" fill="#EDE5D3" opacity="0.25"/><circle cx="496.3" cy="265.1" r="0.5" fill="#EDE5D3" opacity="0.25"/><circle cx="521.3" cy="343.8" r="0.5" fill="#EDE5D3" opacity="0.25"/><circle cx="438.4" cy="264.2" r="0.5" fill="#EDE5D3" opacity="0.25"/><circle cx="530.6" cy="268.1" r="0.5" fill="#EDE5D3" opacity="0.25"/><circle cx="481.4" cy="304.0" r="0.5" fill="#EDE5D3" opacity="0.25"/><circle cx="471.3" cy="219.1" r="0.5" fill="#EDE5D3" opacity="0.25"/><circle cx="540.2" cy="313.1" r="0.5" fill="#EDE5D3" opacity="0.25"/><circle cx="448.0" cy="293.0" r="0.5" fill="#EDE5D3" opacity="0.25"/><circle cx="505.2" cy="264.2" r="0.5" fill="#EDE5D3" opacity="0.25"/><circle cx="499.2" cy="352.1" r="0.5" fill="#EDE5D3" opacity="0.25"/><circle cx="447.0" cy="246.1" r="0.5" fill="#EDE5D3" opacity="0.25"/><circle cx="536.1" cy="282.6" r="0.5" fill="#EDE5D3" opacity="0.25"/><circle cx="472.0" cy="302.5" r="0.5" fill="#EDE5D3" opacity="0.25"/><circle cx="494.9" cy="214.7" r="0.5" fill="#EDE5D3" opacity="0.25"/><circle cx="528.3" cy="329.6" r="0.5" fill="#EDE5D3" opacity="0.25"/><circle cx="445.2" cy="277.4" r="0.5" fill="#EDE5D3" opacity="0.25"/><circle cx="514.5" cy="268.0" r="0.5" fill="#EDE5D3" opacity="0.25"/><circle cx="474.9" cy="352.3" r="1.2" fill="#EDE5D3" opacity="0.65"/><circle cx="461.7" cy="231.8" r="0.5" fill="#EDE5D3" opacity="0.25"/><circle cx="536.0" cy="298.9" r="0.5" fill="#EDE5D3" opacity="0.25"/><circle cx="463.4" cy="296.4" r="0.5" fill="#EDE5D3" opacity="0.25"/><circle cx="519.0" cy="218.9" r="0.5" fill="#EDE5D3" opacity="0.25"/><circle cx="511.0" cy="341.4" r="0.5" fill="#EDE5D3" opacity="0.25"/><circle cx="448.3" cy="261.0" r="0.5" fill="#EDE5D3" opacity="0.25"/><circle cx="522.0" cy="276.2" r="0.5" fill="#EDE5D3" opacity="0.25"/><circle cx="451.7" cy="343.9" r="0.5" fill="#EDE5D3" opacity="0.25"/><circle cx="481.2" cy="223.2" r="0.5" fill="#EDE5D3" opacity="0.25"/><circle cx="529.9" cy="314.8" r="0.5" fill="#EDE5D3" opacity="0.25"/><circle cx="457.5" cy="286.4" r="0.5" fill="#EDE5D3" opacity="0.25"/><circle cx="540.7" cy="231.4" r="0.5" fill="#EDE5D3" opacity="0.25"/><circle cx="490.1" cy="346.5" r="0.5" fill="#EDE5D3" opacity="0.25"/><circle cx="457.3" cy="246.1" r="0.5" fill="#EDE5D3" opacity="0.25"/><circle cx="525.9" cy="287.6" r="0.5" fill="#EDE5D3" opacity="0.25"/><circle cx="432.3" cy="327.6" r="0.5" fill="#EDE5D3" opacity="0.25"/><circle cx="502.9" cy="221.8" r="0.5" fill="#EDE5D3" opacity="0.25"/><circle cx="518.1" cy="328.0" r="0.5" fill="#EDE5D3" opacity="0.25"/><circle cx="455.8" cy="274.0" r="1.2" fill="#EDE5D3" opacity="0.65"/><circle cx="492.9" cy="283.0" r="0.5" fill="#EDE5D3" opacity="0.25"/><circle cx="468.1" cy="343.9" r="0.5" fill="#EDE5D3" opacity="0.25"/><circle cx="471.6" cy="235.0" r="0.5" fill="#EDE5D3" opacity="0.25"/><circle cx="525.2" cy="300.6" r="0.5" fill="#EDE5D3" opacity="0.25"/><circle cx="480.9" cy="287.0" r="0.5" fill="#EDE5D3" opacity="0.25"/><circle cx="524.4" cy="228.3" r="0.5" fill="#EDE5D3" opacity="0.25"/><circle cx="501.8" cy="336.6" r="0.5" fill="#EDE5D3" opacity="0.25"/><circle cx="459.1" cy="260.9" r="0.5" fill="#EDE5D3" opacity="0.25"/><circle cx="505.6" cy="282.3" r="0.5" fill="#EDE5D3" opacity="0.25"/><circle cx="447.9" cy="333.7" r="0.5" fill="#EDE5D3" opacity="0.25"/><circle cx="489.5" cy="229.3" r="0.5" fill="#EDE5D3" opacity="0.25"/><circle cx="519.3" cy="313.3" r="0.5" fill="#EDE5D3" opacity="0.25"/><circle cx="473.0" cy="282.9" r="0.5" fill="#EDE5D3" opacity="0.25"/><circle cx="542.7" cy="242.1" r="0.5" fill="#EDE5D3" opacity="0.25"/><circle cx="482.8" cy="339.1" r="0.5" fill="#EDE5D3" opacity="0.25"/><circle cx="467.5" cy="249.2" r="0.5" fill="#EDE5D3" opacity="0.25"/><circle cx="511.2" cy="288.8" r="0.5" fill="#EDE5D3" opacity="0.25"/><circle cx="432.0" cy="316.6" r="0.5" fill="#EDE5D3" opacity="0.25"/><circle cx="509.0" cy="230.3" r="1.2" fill="#EDE5D3" opacity="0.65"/><circle cx="508.6" cy="323.5" r="0.5" fill="#EDE5D3" opacity="0.25"/><circle cx="469.8" cy="274.8" r="0.5" fill="#EDE5D3" opacity="0.25"/><circle cx="555.5" cy="261.9" r="0.5" fill="#EDE5D3" opacity="0.25"/><circle cx="463.5" cy="334.5" r="0.5" fill="#EDE5D3" opacity="0.25"/><circle cx="480.3" cy="240.8" r="0.5" fill="#EDE5D3" opacity="0.25"/><circle cx="512.1" cy="298.0" r="0.5" fill="#EDE5D3" opacity="0.25"/><circle cx="422.9" cy="294.7" r="0.5" fill="#EDE5D3" opacity="0.25"/><circle cx="527.5" cy="238.3" r="0.5" fill="#EDE5D3" opacity="0.25"/><circle cx="494.1" cy="329.5" r="0.5" fill="#EDE5D3" opacity="0.25"/><circle cx="471.2" cy="265.1" r="0.5" fill="#EDE5D3" opacity="0.25"/><circle cx="560.7" cy="285.4" r="0.5" fill="#EDE5D3" opacity="0.25"/><circle cx="446.4" cy="323.2" r="0.5" fill="#EDE5D3" opacity="0.25"/><circle cx="496.0" cy="237.5" r="0.5" fill="#EDE5D3" opacity="0.25"/><circle cx="508.3" cy="307.5" r="0.5" fill="#EDE5D3" opacity="0.25"/><circle cx="421.9" cy="270.4" r="0.5" fill="#EDE5D3" opacity="0.25"/><circle cx="542.5" cy="252.7" r="0.5" fill="#EDE5D3" opacity="0.25"/><circle cx="477.7" cy="330.0" r="0.5" fill="#EDE5D3" opacity="0.25"/><circle cx="477.3" cy="256.2" r="0.5" fill="#EDE5D3" opacity="0.25"/><circle cx="557.4" cy="309.7" r="1.2" fill="#EDE5D3" opacity="0.65"/><circle cx="434.0" cy="306.2" r="0.5" fill="#EDE5D3" opacity="0.25"/><circle cx="512.6" cy="240.0" r="0.5" fill="#EDE5D3" opacity="0.25"/><circle cx="500.2" cy="315.4" r="0.5" fill="#EDE5D3" opacity="0.25"/><circle cx="429.5" cy="246.7" r="0.5" fill="#EDE5D3" opacity="0.25"/><circle cx="551.8" cy="271.9" r="0.5" fill="#EDE5D3" opacity="0.25"/><circle cx="461.4" cy="324.4" r="0.5" fill="#EDE5D3" opacity="0.25"/><circle cx="487.3" cy="249.9" r="0.5" fill="#EDE5D3" opacity="0.25"/><polyline points="442.6,272.5 455.7,250.4 481.2,257.8 495.1,240.5 517.2,259.4 533.6,252.8" stroke="#EDE5D3" opacity=".6" stroke-width=".8" fill="none"/><circle cx="442.62" cy="272.52" r="3" fill="#EDE5D3" opacity=".6" filter="url(#halo)"/><circle cx="442.62" cy="272.52" r="1" fill="#F6F4EF"/><circle cx="455.74" cy="250.38" r="3" fill="#EDE5D3" opacity=".6" filter="url(#halo)"/><circle cx="455.74" cy="250.38" r="1" fill="#F6F4EF"/><circle cx="481.16" cy="257.76" r="3" fill="#EDE5D3" opacity=".6" filter="url(#halo)"/><circle cx="481.16" cy="257.76" r="1" fill="#F6F4EF"/><circle cx="495.1" cy="240.54" r="3" fill="#EDE5D3" opacity=".6" filter="url(#halo)"/><circle cx="495.1" cy="240.54" r="1" fill="#F6F4EF"/><circle cx="517.24" cy="259.4" r="3" fill="#EDE5D3" opacity=".6" filter="url(#halo)"/><circle cx="517.24" cy="259.4" r="1" fill="#F6F4EF"/><circle cx="533.64" cy="252.84" r="3" fill="#EDE5D3" opacity=".6" filter="url(#halo)"/><circle cx="533.64" cy="252.84" r="1" fill="#F6F4EF"/><polyline points="463.9,323.4 479.5,301.2 505.8,309.4 522.2,293.8 534.5,312.7" stroke="#EDE5D3" opacity=".6" stroke-width=".8" fill="none"/><circle cx="463.94" cy="323.36" r="3" fill="#EDE5D3" opacity=".6" filter="url(#halo)"/><circle cx="463.94" cy="323.36" r="1" fill="#F6F4EF"/><circle cx="479.52" cy="301.22" r="3" fill="#EDE5D3" opacity=".6" filter="url(#halo)"/><circle cx="479.52" cy="301.22" r="1" fill="#F6F4EF"/><circle cx="505.76" cy="309.42" r="3" fill="#EDE5D3" opacity=".6" filter="url(#halo)"/><circle cx="505.76" cy="309.42" r="1" fill="#F6F4EF"/><circle cx="522.16" cy="293.84" r="3" fill="#EDE5D3" opacity=".6" filter="url(#halo)"/><circle cx="522.16" cy="293.84" r="1" fill="#F6F4EF"/><circle cx="534.46" cy="312.7" r="3" fill="#EDE5D3" opacity=".6" filter="url(#halo)"/><circle cx="534.46" cy="312.7" r="1" fill="#F6F4EF"/></g><circle cx="509" cy="563" r="120" fill="url(#orb)"/><clipPath id="clip2"><circle cx="509" cy="563" r="116.39999999999999"/></clipPath><g clip-path="url(#clip2)"><path d="M425.0 539.0q66.0 -42.0 102.0 24.0t96.0 -30.0" fill="none" stroke="#85B3A5" stroke-width="19.2" opacity=".15" filter="url(#mist)"/><path d="M425.0 563.0q66.0 -42.0 102.0 24.0t96.0 -30.0" fill="none" stroke="#85B3A5" stroke-width="19.2" opacity=".15" filter="url(#mist)"/><path d="M425.0 587.0q66.0 -42.0 102.0 24.0t96.0 -30.0" fill="none" stroke="#85B3A5" stroke-width="19.2" opacity=".15" filter="url(#mist)"/><circle cx="556.1" cy="563.0" r="1.2" fill="#EDE5D3" opacity="0.65"/><circle cx="431.6" cy="633.9" r="0.5" fill="#EDE5D3" opacity="0.25"/><circle cx="516.9" cy="473.0" r="0.5" fill="#EDE5D3" opacity="0.25"/><circle cx="553.3" cy="620.8" r="0.5" fill="#EDE5D3" opacity="0.25"/><circle cx="460.3" cy="554.4" r="0.5" fill="#EDE5D3" opacity="0.25"/><circle cx="598.5" cy="506.1" r="0.5" fill="#EDE5D3" opacity="0.25"/><circle cx="485.2" cy="651.5" r="0.5" fill="#EDE5D3" opacity="0.25"/><circle cx="474.7" cy="497.0" r="0.5" fill="#EDE5D3" opacity="0.25"/><circle cx="557.5" cy="580.7" r="0.5" fill="#EDE5D3" opacity="0.25"/><circle cx="410.0" cy="603.9" r="0.5" fill="#EDE5D3" opacity="0.25"/><circle cx="548.3" cy="478.9" r="0.5" fill="#EDE5D3" opacity="0.25"/><circle cx="531.7" cy="635.4" r="0.5" fill="#EDE5D3" opacity="0.25"/><circle cx="462.4" cy="536.0" r="0.5" fill="#EDE5D3" opacity="0.25"/><circle cx="515.2" cy="561.6" r="0.5" fill="#EDE5D3" opacity="0.25"/><circle cx="454.9" cy="639.9" r="0.5" fill="#EDE5D3" opacity="0.25"/><circle cx="499.1" cy="486.3" r="0.5" fill="#EDE5D3" opacity="0.25"/><circle cx="551.8" cy="599.0" r="0.5" fill="#EDE5D3" opacity="0.25"/><circle cx="492.7" cy="563.7" r="0.5" fill="#EDE5D3" opacity="0.25"/><circle cx="576.5" cy="495.8" r="0.5" fill="#EDE5D3" opacity="0.25"/><circle cx="505.4" cy="641.7" r="1.2" fill="#EDE5D3" opacity="0.65"/><circle cx="471.9" cy="518.5" r="0.5" fill="#EDE5D3" opacity="0.25"/><circle cx="531.0" cy="566.0" r="0.5" fill="#EDE5D3" opacity="0.25"/><circle cx="429.8" cy="618.1" r="0.5" fill="#EDE5D3" opacity="0.25"/><circle cx="526.6" cy="484.7" r="0.5" fill="#EDE5D3" opacity="0.25"/><circle cx="538.8" cy="614.9" r="0.5" fill="#EDE5D3" opacity="0.25"/><circle cx="483.4" cy="554.8" r="0.5" fill="#EDE5D3" opacity="0.25"/><circle cx="597.6" cy="522.1" r="0.5" fill="#EDE5D3" opacity="0.25"/><circle cx="477.5" cy="638.3" r="0.5" fill="#EDE5D3" opacity="0.25"/><circle cx="488.1" cy="504.9" r="0.5" fill="#EDE5D3" opacity="0.25"/><circle cx="536.3" cy="577.3" r="0.5" fill="#EDE5D3" opacity="0.25"/><circle cx="413.5" cy="588.2" r="0.5" fill="#EDE5D3" opacity="0.25"/><circle cx="553.9" cy="493.2" r="0.5" fill="#EDE5D3" opacity="0.25"/><circle cx="519.8" cy="625.6" r="0.5" fill="#EDE5D3" opacity="0.25"/><circle cx="481.9" cy="542.0" r="0.5" fill="#EDE5D3" opacity="0.25"/><circle cx="608.6" cy="554.8" r="0.5" fill="#EDE5D3" opacity="0.25"/><circle cx="451.7" cy="625.0" r="0.5" fill="#EDE5D3" opacity="0.25"/><circle cx="509.3" cy="497.7" r="0.5" fill="#EDE5D3" opacity="0.25"/><circle cx="534.2" cy="590.8" r="0.5" fill="#EDE5D3" opacity="0.25"/><circle cx="408.4" cy="553.7" r="1.2" fill="#EDE5D3" opacity="0.65"/><circle cx="577.3" cy="511.2" r="0.5" fill="#EDE5D3" opacity="0.25"/><circle cx="497.0" cy="628.9" r="0.5" fill="#EDE5D3" opacity="0.25"/><circle cx="487.5" cy="528.8" r="0.5" fill="#EDE5D3" opacity="0.25"/><circle cx="607.5" cy="590.0" r="0.5" fill="#EDE5D3" opacity="0.25"/><circle cx="431.6" cy="602.7" r="0.5" fill="#EDE5D3" opacity="0.25"/><circle cx="532.9" cy="498.6" r="0.5" fill="#EDE5D3" opacity="0.25"/><circle cx="525.3" cy="602.9" r="0.5" fill="#EDE5D3" opacity="0.25"/><circle cx="415.7" cy="518.8" r="0.5" fill="#EDE5D3" opacity="0.25"/><circle cx="593.4" cy="537.0" r="0.5" fill="#EDE5D3" opacity="0.25"/><circle cx="473.4" cy="623.7" r="0.5" fill="#EDE5D3" opacity="0.25"/><circle cx="499.4" cy="518.3" r="0.5" fill="#EDE5D3" opacity="0.25"/><circle cx="594.1" cy="623.4" r="0.5" fill="#EDE5D3" opacity="0.25"/><circle cx="420.1" cy="574.1" r="0.5" fill="#EDE5D3" opacity="0.25"/><circle cx="555.6" cy="508.2" r="0.5" fill="#EDE5D3" opacity="0.25"/><circle cx="510.8" cy="611.1" r="0.5" fill="#EDE5D3" opacity="0.25"/><circle cx="435.0" cy="487.9" r="0.5" fill="#EDE5D3" opacity="0.25"/><circle cx="599.8" cy="567.6" r="0.5" fill="#EDE5D3" opacity="0.25"/><circle cx="452.3" cy="609.8" r="0.5" fill="#EDE5D3" opacity="0.25"/><circle cx="516.0" cy="513.1" r="1.2" fill="#EDE5D3" opacity="0.65"/><circle cx="569.4" cy="650.7" r="0.5" fill="#EDE5D3" opacity="0.25"/><circle cx="419.2" cy="542.3" r="0.5" fill="#EDE5D3" opacity="0.25"/><circle cx="574.3" cy="526.0" r="0.5" fill="#EDE5D3" opacity="0.25"/><circle cx="492.8" cy="613.1" r="0.5" fill="#EDE5D3" opacity="0.25"/><circle cx="464.4" cy="465.1" r="0.5" fill="#EDE5D3" opacity="0.25"/><circle cx="594.9" cy="599.5" r="0.5" fill="#EDE5D3" opacity="0.25"/><circle cx="436.9" cy="588.6" r="0.5" fill="#EDE5D3" opacity="0.25"/><circle cx="534.7" cy="514.7" r="0.5" fill="#EDE5D3" opacity="0.25"/><circle cx="511.9" cy="574.4" r="0.5" fill="#EDE5D3" opacity="0.25"/><circle cx="429.7" cy="511.5" r="0.5" fill="#EDE5D3" opacity="0.25"/><circle cx="585.9" cy="550.2" r="0.5" fill="#EDE5D3" opacity="0.25"/><circle cx="474.0" cy="607.7" r="0.5" fill="#EDE5D3" opacity="0.25"/><circle cx="507.5" cy="543.9" r="0.5" fill="#EDE5D3" opacity="0.25"/><circle cx="579.0" cy="628.4" r="0.5" fill="#EDE5D3" opacity="0.25"/><circle cx="429.6" cy="562.2" r="0.5" fill="#EDE5D3" opacity="0.25"/><circle cx="552.7" cy="523.7" r="0.5" fill="#EDE5D3" opacity="0.25"/><circle cx="506.6" cy="587.3" r="0.5" fill="#EDE5D3" opacity="0.25"/><circle cx="450.8" cy="485.5" r="0.5" fill="#EDE5D3" opacity="0.25"/><circle cx="588.5" cy="577.9" r="1.2" fill="#EDE5D3" opacity="0.65"/><circle cx="457.5" cy="595.1" r="0.5" fill="#EDE5D3" opacity="0.25"/><circle cx="516.7" cy="535.4" r="0.5" fill="#EDE5D3" opacity="0.25"/><circle cx="553.4" cy="650.5" r="0.5" fill="#EDE5D3" opacity="0.25"/><circle cx="432.0" cy="534.0" r="0.5" fill="#EDE5D3" opacity="0.25"/><circle cx="567.0" cy="539.7" r="0.5" fill="#EDE5D3" opacity="0.25"/><circle cx="495.0" cy="592.2" r="0.5" fill="#EDE5D3" opacity="0.25"/><circle cx="480.2" cy="468.0" r="0.5" fill="#EDE5D3" opacity="0.25"/><circle cx="580.9" cy="605.6" r="0.5" fill="#EDE5D3" opacity="0.25"/><circle cx="446.1" cy="576.2" r="0.5" fill="#EDE5D3" opacity="0.25"/><circle cx="529.8" cy="534.0" r="0.5" fill="#EDE5D3" opacity="0.25"/><circle cx="520.9" cy="662.7" r="0.5" fill="#EDE5D3" opacity="0.25"/><circle cx="444.6" cy="507.6" r="0.5" fill="#EDE5D3" opacity="0.25"/><circle cx="575.0" cy="560.9" r="0.5" fill="#EDE5D3" opacity="0.25"/><circle cx="481.2" cy="590.1" r="0.5" fill="#EDE5D3" opacity="0.25"/><circle cx="514.7" cy="461.6" r="0.5" fill="#EDE5D3" opacity="0.25"/><circle cx="563.7" cy="629.8" r="0.5" fill="#EDE5D3" opacity="0.25"/><circle cx="441.9" cy="553.3" r="0.5" fill="#EDE5D3" opacity="0.25"/><circle cx="543.4" cy="539.6" r="0.5" fill="#EDE5D3" opacity="0.25"/><circle cx="485.5" cy="662.9" r="1.2" fill="#EDE5D3" opacity="0.65"/><circle cx="466.2" cy="486.6" r="0.5" fill="#EDE5D3" opacity="0.25"/><circle cx="574.9" cy="584.7" r="0.5" fill="#EDE5D3" opacity="0.25"/><circle cx="468.6" cy="581.2" r="0.5" fill="#EDE5D3" opacity="0.25"/><circle cx="550.0" cy="467.7" r="0.5" fill="#EDE5D3" opacity="0.25"/><circle cx="538.3" cy="647.0" r="0.5" fill="#EDE5D3" opacity="0.25"/><circle cx="446.4" cy="529.3" r="0.5" fill="#EDE5D3" opacity="0.25"/><circle cx="554.3" cy="551.5" r="0.5" fill="#EDE5D3" opacity="0.25"/><circle cx="451.4" cy="650.6" r="0.5" fill="#EDE5D3" opacity="0.25"/><circle cx="494.6" cy="474.0" r="0.5" fill="#EDE5D3" opacity="0.25"/><circle cx="566.0" cy="608.0" r="0.5" fill="#EDE5D3" opacity="0.25"/><circle cx="460.0" cy="566.6" r="0.5" fill="#EDE5D3" opacity="0.25"/><circle cx="581.7" cy="486.0" r="0.5" fill="#EDE5D3" opacity="0.25"/><circle cx="507.7" cy="654.4" r="0.5" fill="#EDE5D3" opacity="0.25"/><circle cx="459.7" cy="507.6" r="0.5" fill="#EDE5D3" opacity="0.25"/><circle cx="560.1" cy="568.2" r="0.5" fill="#EDE5D3" opacity="0.25"/><circle cx="423.2" cy="626.8" r="0.5" fill="#EDE5D3" opacity="0.25"/><circle cx="526.5" cy="472.0" r="0.5" fill="#EDE5D3" opacity="0.25"/><circle cx="548.7" cy="627.4" r="0.5" fill="#EDE5D3" opacity="0.25"/><circle cx="457.5" cy="548.3" r="1.2" fill="#EDE5D3" opacity="0.65"/><circle cx="511.8" cy="561.6" r="0.5" fill="#EDE5D3" opacity="0.25"/><circle cx="475.5" cy="650.7" r="0.5" fill="#EDE5D3" opacity="0.25"/><circle cx="480.6" cy="491.2" r="0.5" fill="#EDE5D3" opacity="0.25"/><circle cx="559.1" cy="587.3" r="0.5" fill="#EDE5D3" opacity="0.25"/><circle cx="494.2" cy="567.4" r="0.5" fill="#EDE5D3" opacity="0.25"/><circle cx="557.9" cy="481.4" r="0.5" fill="#EDE5D3" opacity="0.25"/><circle cx="524.8" cy="640.0" r="0.5" fill="#EDE5D3" opacity="0.25"/><circle cx="462.3" cy="529.2" r="0.5" fill="#EDE5D3" opacity="0.25"/><circle cx="530.4" cy="560.5" r="0.5" fill="#EDE5D3" opacity="0.25"/><circle cx="445.9" cy="635.7" r="0.5" fill="#EDE5D3" opacity="0.25"/><circle cx="506.9" cy="483.0" r="0.5" fill="#EDE5D3" opacity="0.25"/><circle cx="550.4" cy="605.9" r="0.5" fill="#EDE5D3" opacity="0.25"/><circle cx="482.7" cy="561.4" r="0.5" fill="#EDE5D3" opacity="0.25"/><circle cx="584.7" cy="501.7" r="0.5" fill="#EDE5D3" opacity="0.25"/><circle cx="497.0" cy="643.6" r="0.5" fill="#EDE5D3" opacity="0.25"/><circle cx="474.6" cy="512.0" r="0.5" fill="#EDE5D3" opacity="0.25"/><circle cx="538.5" cy="570.1" r="0.5" fill="#EDE5D3" opacity="0.25"/><circle cx="422.7" cy="610.8" r="0.5" fill="#EDE5D3" opacity="0.25"/><circle cx="535.3" cy="484.4" r="1.2" fill="#EDE5D3" opacity="0.65"/><circle cx="534.7" cy="620.8" r="0.5" fill="#EDE5D3" opacity="0.25"/><circle cx="477.9" cy="549.5" r="0.5" fill="#EDE5D3" opacity="0.25"/><circle cx="603.4" cy="530.6" r="0.5" fill="#EDE5D3" opacity="0.25"/><circle cx="468.7" cy="637.0" r="0.5" fill="#EDE5D3" opacity="0.25"/><circle cx="493.3" cy="499.8" r="0.5" fill="#EDE5D3" opacity="0.25"/><circle cx="539.9" cy="583.5" r="0.5" fill="#EDE5D3" opacity="0.25"/><circle cx="409.3" cy="578.6" r="0.5" fill="#EDE5D3" opacity="0.25"/><circle cx="562.4" cy="496.1" r="0.5" fill="#EDE5D3" opacity="0.25"/><circle cx="513.5" cy="629.6" r="0.5" fill="#EDE5D3" opacity="0.25"/><circle cx="480.0" cy="535.4" r="0.5" fill="#EDE5D3" opacity="0.25"/><circle cx="611.0" cy="565.0" r="0.5" fill="#EDE5D3" opacity="0.25"/><circle cx="443.8" cy="620.4" r="0.5" fill="#EDE5D3" opacity="0.25"/><circle cx="516.3" cy="494.9" r="0.5" fill="#EDE5D3" opacity="0.25"/><circle cx="534.4" cy="597.5" r="0.5" fill="#EDE5D3" opacity="0.25"/><circle cx="407.8" cy="543.1" r="0.5" fill="#EDE5D3" opacity="0.25"/><circle cx="584.3" cy="517.1" r="0.5" fill="#EDE5D3" opacity="0.25"/><circle cx="489.5" cy="630.3" r="0.5" fill="#EDE5D3" opacity="0.25"/><circle cx="488.9" cy="522.3" r="0.5" fill="#EDE5D3" opacity="0.25"/><circle cx="606.2" cy="600.7" r="1.2" fill="#EDE5D3" opacity="0.65"/><circle cx="425.7" cy="595.5" r="0.5" fill="#EDE5D3" opacity="0.25"/><circle cx="540.7" cy="498.6" r="0.5" fill="#EDE5D3" opacity="0.25"/><circle cx="522.4" cy="608.9" r="0.5" fill="#EDE5D3" opacity="0.25"/><circle cx="418.9" cy="508.4" r="0.5" fill="#EDE5D3" opacity="0.25"/><circle cx="598.0" cy="545.2" r="0.5" fill="#EDE5D3" opacity="0.25"/><circle cx="465.7" cy="622.1" r="0.5" fill="#EDE5D3" opacity="0.25"/><circle cx="503.5" cy="513.2" r="0.5" fill="#EDE5D3" opacity="0.25"/><polyline points="438.2,546.2 457.4,513.8 494.6,524.6 515.0,499.4 547.4,527.0 571.4,517.4" stroke="#EDE5D3" opacity=".6" stroke-width=".8" fill="none"/><circle cx="438.2" cy="546.2" r="3" fill="#EDE5D3" opacity=".6" filter="url(#halo)"/><circle cx="438.2" cy="546.2" r="1" fill="#F6F4EF"/><circle cx="457.4" cy="513.8" r="3" fill="#EDE5D3" opacity=".6" filter="url(#halo)"/><circle cx="457.4" cy="513.8" r="1" fill="#F6F4EF"/><circle cx="494.6" cy="524.6" r="3" fill="#EDE5D3" opacity=".6" filter="url(#halo)"/><circle cx="494.6" cy="524.6" r="1" fill="#F6F4EF"/><circle cx="515.0" cy="499.4" r="3" fill="#EDE5D3" opacity=".6" filter="url(#halo)"/><circle cx="515.0" cy="499.4" r="1" fill="#F6F4EF"/><circle cx="547.4" cy="527.0" r="3" fill="#EDE5D3" opacity=".6" filter="url(#halo)"/><circle cx="547.4" cy="527.0" r="1" fill="#F6F4EF"/><circle cx="571.4" cy="517.4" r="3" fill="#EDE5D3" opacity=".6" filter="url(#halo)"/><circle cx="571.4" cy="517.4" r="1" fill="#F6F4EF"/><polyline points="469.4,620.6 492.2,588.2 530.6,600.2 554.6,577.4 572.6,605.0" stroke="#EDE5D3" opacity=".6" stroke-width=".8" fill="none"/><circle cx="469.4" cy="620.6" r="3" fill="#EDE5D3" opacity=".6" filter="url(#halo)"/><circle cx="469.4" cy="620.6" r="1" fill="#F6F4EF"/><circle cx="492.2" cy="588.2" r="3" fill="#EDE5D3" opacity=".6" filter="url(#halo)"/><circle cx="492.2" cy="588.2" r="1" fill="#F6F4EF"/><circle cx="530.6" cy="600.2" r="3" fill="#EDE5D3" opacity=".6" filter="url(#halo)"/><circle cx="530.6" cy="600.2" r="1" fill="#F6F4EF"/><circle cx="554.6" cy="577.4" r="3" fill="#EDE5D3" opacity=".6" filter="url(#halo)"/><circle cx="554.6" cy="577.4" r="1" fill="#F6F4EF"/><circle cx="572.6" cy="605.0" r="3" fill="#EDE5D3" opacity=".6" filter="url(#halo)"/><circle cx="572.6" cy="605.0" r="1" fill="#F6F4EF"/></g><g transform="translate(302 372) rotate(24)"><path d="M-5-12Q-20-12-38 5Q-20 18-7 9M5-12Q20-12 38 5Q20 18 7 9" fill="#143c40" stroke="#b9d1c5" stroke-width="1"/><path d="M0-25 6-12 8 2 4 14 2 8 3-5M0-25-6-12-8 2-4 14-2 8-3-5" fill="#b9d1c5"/><path d="M-9-5A10 10 0 1 0 9-5" fill="none" stroke="#9ac5b5"/><path d="m0-6 5 6-5 6-5-6z" fill="#e8735a"/><g stroke="#ffebcf" stroke-width="1.6"><path d="M-13 13v12M13 13v12M0 16v13"/></g><circle cy="-24" r="1.4" fill="#fff0d8"/></g></svg>